<?xml version="1.0" encoding="UTF-8"?>
<svg id="Layer_1" data-name="Layer 1" xmlns="http://www.w3.org/2000/svg" xmlns:xlink="http://www.w3.org/1999/xlink" viewBox="0 0 62.63 66.01">
  <defs>
    <style>
      .cls-1 {
        fill: url(#linear-gradient);
      }

      .cls-1, .cls-2 {
        stroke-width: 0px;
      }

      .cls-2 {
        fill: url(#linear-gradient-2);
      }
    </style>
    <linearGradient id="linear-gradient" x1="525.71" y1="-357.53" x2="443.9" y2="-304.35" gradientTransform="translate(-314.3 -211.89) scale(.73 -.73)" gradientUnits="userSpaceOnUse">
      <stop offset="0" stop-color="#d750f2"/>
      <stop offset="1" stop-color="#5eacf8"/>
    </linearGradient>
    <linearGradient id="linear-gradient-2" x1="492.51" y1="-363.31" x2="453.7" y2="-336.48" gradientTransform="translate(-314.3 -211.89) scale(.73 -.73)" gradientUnits="userSpaceOnUse">
      <stop offset="0" stop-color="#bf6ef8"/>
      <stop offset="1" stop-color="#abc2f6"/>
    </linearGradient>
  </defs>
  <path class="cls-1" d="m6.5,52.75C2.09,47.03-.2,39.46.01,32.25c.22-7.35,2.54-14,7.13-19.76.96-1.2,1.98-2.39,3.1-3.44C15.98,3.66,23.08.71,30.91.12c2.67-.2,5.4-.08,8.08-.08h6.42c1.34,0,2.69-.03,4.03.01,1.34-.07,2.71-.01,4.05-.02l9.11-.02c-.14,4.77-.03,9.62-.03,14.4v27.03s.01,9.04.01,9.04c0,1.83.18,3.89-.15,5.68-.4,2.18-1.6,4.12-3.2,5.62-3.07,2.88-7.64,4.35-11.81,4.22-4.2-.13-8.28-1.68-11.19-4.79-.06-.06-.12-.12-.17-.19-.06-.06-.11-.13-.17-.19-.05-.06-.11-.13-.16-.2-.05-.07-.11-.13-.16-.2-.05-.07-.1-.13-.15-.2-.05-.07-.1-.14-.15-.21-.05-.07-.1-.14-.14-.21-.05-.07-.09-.14-.14-.21-.04-.07-.09-.14-.13-.22-.04-.07-.09-.15-.13-.22s-.08-.15-.12-.22c-.04-.07-.08-.15-.12-.23-.04-.08-.07-.15-.11-.23-.04-.08-.07-.15-.1-.23-.03-.08-.07-.16-.1-.23-.03-.08-.06-.16-.09-.24-.03-.08-.06-.16-.09-.24s-.06-.16-.08-.24c-.03-.08-.05-.16-.08-.24-.02-.08-.05-.16-.07-.24-.02-.08-.04-.16-.06-.25-.02-.08-.04-.16-.06-.25-.02-.08-.03-.17-.05-.25-.02-.08-.03-.17-.04-.25-.01-.08-.03-.17-.04-.25-.01-.08-.02-.17-.03-.25,0-.08-.02-.17-.03-.25s-.01-.17-.02-.25-.01-.17-.01-.25c0-.08,0-.17,0-.25,0-.08,0-.17,0-.25,0-.08,0-.17,0-.25.11-2.8,1.53-5.3,3.56-7.16,3.09-2.83,7.18-4.18,11.35-3.99,2.43.11,4.83.67,7,1.78.37.19.74.38,1.09.6.43.27,1.56,1.25,2.03,1.23.1-.12.12-.17.13-.33.07-1.29-.02-2.79-.02-4.11v-8.61s-.03-26.6-.03-26.6c-1.82,3.56-6.46,6.3-10.15,7.49-1.79.58-4.6,1.25-6.48,1.13-1.83.19-3.75-.04-5.58-.25,0,1.9-.07,3.83.01,5.73-.12.02-.39.09-.48,0-.33-.34-.51-.9-.79-1.3-.78-1.09-1.86-2.21-2.94-3-.76,1.6-1.5,3.21-2.02,4.91-.96,3.15-.7,5.42-2.92,8.19-1.72,2.14-4.14,3.56-6.5,4.87-.8.45-1.58.93-2.39,1.36-1.72.91-3.49,1.76-5.09,2.88-4.7,3.31-6.88,8.43-6.71,14.12Z"/>
  <path class="cls-2" d="m32.13,16.41c1.08.79,2.16,1.91,2.94,3,.28.39.46.95.79,1.3.09.1.35.02.48,0,1.86-.17,3.74.33,5.18,1.54.92.77,1.7,1.89,2.01,3.05.13.5.2,1.03.48,1.47.48.76,1.29,1.32,2.03,1.81-.21,1.7-.72,3.32-2.12,4.42-.12.09-.23.17-.36.25-.12.08-.25.15-.38.22-.13.07-.26.13-.39.19-.13.06-.27.11-.41.16-.47.16-.98.22-1.45.37-1.03.33-1.65,1.19-1.78,2.25-.15,1.24-.02,2.83-.04,4.12-3.82,1.65-6.88,4.5-8.44,8.42-1.35,3.39-1.36,7.31.1,10.67,1.07,2.46,2.77,4.35,4.83,6.04-8.37.8-16.75-1.41-23.29-6.8-1.93-1.6-4.48-4.04-5.81-6.13-.18-5.69,2.01-10.81,6.71-14.12,1.6-1.13,3.36-1.97,5.09-2.88.81-.43,1.59-.92,2.39-1.36,2.36-1.31,4.78-2.73,6.5-4.87,2.22-2.77,1.96-5.04,2.92-8.19.52-1.7,1.26-3.31,2.02-4.91Z"/>
</svg>